<svg id="Opal" xmlns="http://www.w3.org/2000/svg" xmlns:xlink="http://www.w3.org/1999/xlink" viewBox="0 0 600 600"><defs><style>.cls-1,.cls-12,.cls-5{fill:#333459;}.cls-1{opacity:0.1;}.cls-13,.cls-2{fill:#242542;}.cls-3{fill:#fff;}.cls-4{fill:#f3c028;}.cls-10,.cls-11,.cls-6,.cls-7,.cls-8,.cls-9{fill:none;}.cls-10,.cls-6{stroke:#da9412;}.cls-10,.cls-11,.cls-6,.cls-8{stroke-linejoin:round;}.cls-10,.cls-6,.cls-7,.cls-8,.cls-9{stroke-width:11.89px;}.cls-11,.cls-7,.cls-8,.cls-9{stroke:#242542;}.cls-10,.cls-7{stroke-linecap:round;}.cls-7,.cls-9{stroke-miterlimit:10;}.cls-11{stroke-width:12px;}.cls-12,.cls-13,.cls-17{opacity:0.5;}.cls-12,.cls-17,.cls-18{mix-blend-mode:screen;}.cls-14{fill:#da9412;opacity:0.4;}.cls-15{fill:#ebebee;}.cls-16{fill:#999aac;}.cls-17,.cls-18{fill:#f2bf28;}.cls-18{opacity:0.3;}</style><symbol id="Opal_Eyes_Open" data-name="Opal / Eyes Open" viewBox="0 0 422 487.14"><ellipse class="cls-1" cx="214.74" cy="456.39" rx="171.93" ry="30.76"/><path class="cls-2" d="M354.59,26.81c-13.5-3.51-28.21,3.91-35.42,17.7A86.16,86.16,0,0,0,301,32.43C302.54,19,296.52,6.18,285.44.5a27.24,27.24,0,0,1,14.89,1.26c8.44,3.2,14.39,10.29,17,18.91,7.67-4.7,16.83-6,25.27-2.82A27.07,27.07,0,0,1,354.59,26.81Z"/><path class="cls-3" d="M127.52,67.32c.31-.3.62-.59.94-.86C168.8,30.53,190.22,85,190.22,85c49.29-41.77,137.26-12.19,117.69,58.32-6.3,22.67-25,37.53-43.24,47.46,0,0,13.19,29.55,9.42,60.5-2.53,20.89-11.39,41.56-27.72,57-28.5,26.91-73.92,30.76-110,12.89-31.47-15.58-51.38-46.2-48.26-77.83.24-2.38.93-4.8.93-7.25h0c2-14,7-28.85,16-40.75a59,59,0,0,1,9.74-10.2c1.84.39,3.57.8,5.16,1.25,5.35,1.5,10.5,3.24,15.55,5,15.16,35.94,59,41.21,75.66,1.8a17.3,17.3,0,0,0,5.66-7.14l.22-.83a74.15,74.15,0,0,1-18.46-8.06c-12.67-7.52-24.26-17.91-27.4-32.3a338.72,338.72,0,0,0-53.62,11.8l-.58-1.81C93.89,117.16,114.49,79.79,127.52,67.32Z"/><path class="cls-4" d="M213.48,388.27c21.2,8.74,41.87,17.27,65.76,9.11l.1.3c-.34,18.17,16.87,37.45,29.6,49.17a6.87,6.87,0,0,1-4.76,11.92c-7.77-.15-26.28-4.68-27.84-4.15S257,470.7,251.61,474a5.22,5.22,0,0,1-5.07.21c-6.2-3.14-21.66-11.86-27.49-23.68-6,3.45-16.62,7.83-31.22,8.47a6.87,6.87,0,0,1-5.19-11.67C195.14,434.84,208.89,413.57,213.48,388.27Z"/><path class="cls-4" d="M114.76,185.16c-9.81-2.05-22.77-3.27-34.44-4a5.07,5.07,0,0,1-1.65-9.74,330.18,330.18,0,0,1,92.49-26.56c3.14,14.39,14.73,24.78,27.4,32.3A74.15,74.15,0,0,0,217,185.2l-.22.83a17.3,17.3,0,0,1-5.66,7.14c-8.8,6.72-24.44,8.1-37.94,7.34s-25.43-4.94-37.73-9.14c-5.05-1.72-10.2-3.46-15.55-5C118.33,186,116.6,185.54,114.76,185.16Z"/><path class="cls-4" d="M173.2,200.51c13.5.76,29.14-.62,37.94-7.34-16.63,39.41-60.5,34.14-75.66-1.8C147.76,195.58,159.62,199.74,173.2,200.51Z"/><path class="cls-5" d="M105,195.35c-9,11.89-14,26.76-16,40.75h0a194,194,0,0,0-11.16,33.18c-29.79,2.69-53.18-5.07-56-27.37a4.21,4.21,0,0,1,4.09-4.74C69.88,236.08,83.48,218.22,105,195.35Z"/><path class="cls-4" d="M100.27,369.71c-22-11.33-34.25,14-46.65,34.53A8,8,0,0,1,39,402.42,74.58,74.58,0,0,1,35.86,382c-7.11.21-18.82-6.44-26-11A7.33,7.33,0,0,1,8.34,359.9c6.21-6.9,14.34-11.18,13.88-11.37C11.81,344.06,10.51,333.88,11,327a3.43,3.43,0,0,1,5.65-2.39c18.55,16.2,47.64,11.54,58.09,9l1.38-.34c2.56,10.27,6.72,19.09,12.35,26A46.78,46.78,0,0,0,100.27,369.71Z"/><path class="cls-5" d="M77.85,269.29A207,207,0,0,1,89,236.11c-.4,2.45-.7,4.88-.94,7.25C85,275,104.86,305.62,136.33,321.2c36.11,17.87,81.53,14,110-12.89,16.34-15.43,25.2-36.11,27.72-57,3.76-30.95-9.42-60.5-9.42-60.5,18.21-9.93,36.94-24.79,43.24-47.46C327.48,72.85,239.51,43.27,190.22,85c0,0-21.42-54.51-61.76-18.58-.31.27-.62.56-.94.86,8.44-9.94,22-23.64,31.42-29.57C208.44,6.51,277.65,18.46,323.41,52c14.42,10.58,28.2,26.83,36,43.48,16.4,35,5.6,70.85,5.1,107.7-.7,50.44,29.48,80.94,48,95.15a7.69,7.69,0,0,1-3.76,13.77c-17.12,1.93-44.07-.55-67.41-16.77l-.46.67c-8,38.72-20.13,86.05-60,100.81l-1.61.56c-23.89,8.16-44.57-.37-65.76-9.11-10.67-4.4-21.48-8.84-32.9-11.25-26.43-5.56-56.81,7.06-80.32-7.31a46.78,46.78,0,0,1-11.8-10.46c-5.63-6.91-9.8-15.73-12.35-26C71.67,315.43,72,293.3,77.85,269.29Z"/><path class="cls-6" d="M100.39,369.77l-.12-.06c-22-11.33-34.25,14-46.65,34.53A8,8,0,0,1,39,402.42,74.58,74.58,0,0,1,35.86,382c-7.11.21-18.82-6.44-26-11A7.33,7.33,0,0,1,8.34,359.9c6.21-6.9,14.34-11.18,13.88-11.37C11.81,344.06,10.51,333.88,11,327a3.43,3.43,0,0,1,5.65-2.39c18.55,16.2,47.64,11.54,58.09,9"/><path class="cls-6" d="M279.35,397.68c-.34,18.17,16.87,37.45,29.6,49.17a6.87,6.87,0,0,1-4.76,11.92c-7.77-.15-26.28-4.68-27.84-4.15S257,470.7,251.61,474a5.22,5.22,0,0,1-5.07.21c-6.2-3.14-21.66-11.86-27.49-23.68-6,3.45-16.62,7.83-31.22,8.47a6.87,6.87,0,0,1-5.19-11.67c12.49-12.52,26.24-33.79,30.83-59.09"/><path class="cls-7" d="M127.52,67.32c-13,12.47-33.62,49.84-10.55,87.51"/><path class="cls-8" d="M89,236.11c-.4,2.45-.7,4.88-.94,7.25C85,275,104.86,305.62,136.33,321.2c36.11,17.87,81.53,14,110-12.89,16.34-15.43,25.2-36.11,27.72-57,3.76-30.95-9.42-60.5-9.42-60.5,18.21-9.93,36.94-24.79,43.24-47.46C327.48,72.85,239.51,43.27,190.22,85c0,0-21.42-54.51-61.76-18.58-.31.27-.62.56-.94.86"/><path class="cls-8" d="M116.38,183.88c-.55.42-1.09.85-1.62,1.28a59,59,0,0,0-9.74,10.2c-9,11.89-13.81,26.76-16,40.75"/><path class="cls-7" d="M309,256.14c8.35,17.94,19.8,30.53,32.27,39.2,23.34,16.22,50.29,18.7,67.41,16.77a7.69,7.69,0,0,0,3.76-13.77c-18.52-14.21-48.7-44.71-48-95.15.51-36.85,11.3-72.7-5.1-107.7-7.79-16.65-21.57-32.9-36-43.48-45.75-33.55-115-45.5-164.47-14.26-9.41,5.93-23,19.62-31.42,29.57-1.37,1.62-2.6,3.15-3.67,4.52"/><path class="cls-9" d="M79.11,269.17l-1.26.12c-29.79,2.69-53.19-5.07-56-27.37a4.22,4.22,0,0,1,4.09-4.74c44-1.1,57.56-19,79.1-41.83"/><path class="cls-10" d="M216.79,186a17.3,17.3,0,0,1-5.66,7.14c-8.8,6.72-24.44,8.1-37.94,7.34s-25.43-4.94-37.73-9.14c-5.05-1.72-10.2-3.46-15.55-5-1.59-.45-3.31-.86-5.16-1.25-9.81-2.05-22.77-3.27-34.44-4a5.07,5.07,0,0,1-1.65-9.74,330.18,330.18,0,0,1,92.49-26.56c3.14,14.39,14.73,24.78,27.4,32.3A74.15,74.15,0,0,0,217,185.2,47.72,47.72,0,0,0,233,186.93"/><path class="cls-9" d="M77.85,269.29c-5.81,24-6.18,46.14-1.74,63.95,2.56,10.27,6.72,19.09,12.35,26a46.78,46.78,0,0,0,11.8,10.46c23.5,14.37,53.89,1.75,80.32,7.31,11.42,2.41,22.22,6.85,32.9,11.25,21.2,8.74,41.87,17.27,65.76,9.11l1.61-.56c39.88-14.76,52-62.09,60-100.81"/><path class="cls-11" d="M89,236.57v-.46a196.33,196.33,0,0,0-11.16,33.42"/><path class="cls-10" d="M135.47,191.37c15.16,35.94,59,41.21,75.66,1.8"/><path class="cls-12" d="M181.93,50.26c-7.5-3.67,19.94-16.35,40.87-14.66,2.65.21,3.12,4.06.66,5.44C211.88,47.55,200.54,59.36,181.93,50.26Z"/><path class="cls-13" d="M332.87,292.67c1.48,1.12,2.95,2.24,4.47,3.29-.06.28-.13.57-.18.88-.68,3.27-1.69,8.05-3.14,14.1s-3.34,13.31-6,21.42a143.17,143.17,0,0,1-11.36,26.11c-5.15,8.93-12,18-21.43,24.73a64,64,0,0,1-7.46,4.63c-1.31.68-2.54,1.26-4,1.91l-2.22.91-1,.42-1.09.36a42.62,42.62,0,0,1-4.36,1.38c-1.48.41-3,.73-4.49,1a58.53,58.53,0,0,1-9.27,1,71.71,71.71,0,0,1-19.22-2.43,164.3,164.3,0,0,1-19.43-6.58c-.47-.18-.92-.36-1.38-.55-12.58-5-25.54-10.78-39.56-13.78a92.1,92.1,0,0,0-22.27-1.6c-7.29.23-14.42.89-21.39,1.23a102.87,102.87,0,0,1-20.31-.53,53.3,53.3,0,0,1-6.69-1.43,4.48,4.48,0,0,0-3.73-3c-1-.13-1.93-.26-2.9-.34-.71,0-1.43-.13-2.16-.16-.81-.44-1.6-.89-2.4-1.41a39.18,39.18,0,0,1-7.18-5.8c-1.07-.94-2.17-2.33-3.26-3.52l-1.33-1.75c-.5-.58-.89-1.25-1.35-1.86a60.88,60.88,0,0,1-6.19-11.81q.95.68,1.94,1.31c.79.5,1.59,1,2.4,1.41.73,0,1.44.11,2.16.15,1,.1,1.95.23,2.9.36a4.49,4.49,0,0,1,3.73,3,53.35,53.35,0,0,0,6.69,1.44,102.88,102.88,0,0,0,20.31.53c7-.34,14.1-1,21.39-1.23A92.84,92.84,0,0,1,164.41,348c14,3,27,8.8,39.56,13.79.45.19.91.37,1.38.55a162.29,162.29,0,0,0,19.43,6.56A71.75,71.75,0,0,0,244,371.37a58.53,58.53,0,0,0,9.27-1c1.51-.29,3-.63,4.49-1a44.25,44.25,0,0,0,4.38-1.38l1.07-.37,1-.42,2.22-.89c1.41-.65,2.64-1.25,4-1.91a62,62,0,0,0,7.46-4.65C287.28,353,294.11,344,299.26,335a142.57,142.57,0,0,0,11.36-26.09c2.71-8.12,4.57-15.41,6.06-21.42.89-3.73,1.62-7,2.2-9.71q.36.56.78,1.12a66.34,66.34,0,0,0,6.14,7.34A75.7,75.7,0,0,0,332.87,292.67Z"/><path class="cls-13" d="M337.42,71.15l-.12-.21a112.32,112.32,0,0,1,8.19,9.65,100.78,100.78,0,0,1,7.85,12.06,80.87,80.87,0,0,1,5.77,13.07A94.1,94.1,0,0,1,363.63,134c.42,19.49-3.15,39.39-3.09,59.89a143.31,143.31,0,0,0,3.33,30.61,113.46,113.46,0,0,0,10.39,28.56,86,86,0,0,1-15.67-21,113.38,113.38,0,0,1-10.64-29,143.41,143.41,0,0,1-3.33-30.61c-.06-20.5,3.51-40.4,3.09-59.91a94.69,94.69,0,0,0-4.5-28.33A82.68,82.68,0,0,0,337.42,71.15Z"/><path class="cls-14" d="M285.44,443l-.79-.31c-.4-.18-.89-.43-1.4-.7l-.61-.37-.37-.27a11,11,0,0,0-2.53-1.55l-.22-.1a10.88,10.88,0,0,0-14.09,5.77l-.25.59a17.94,17.94,0,0,1-1.23,2.29,23.58,23.58,0,0,1-1.74,2.39,25.11,25.11,0,0,1-1.9,2.07c-.73.7-1.46,1.32-2.27,2l-1.34.94-1.32.88c-1,.55-1.8,1-2.54,1.35l-.34.16-.33.18c-.13.07-.74.16-.94.24a13.18,13.18,0,0,0-2.22-1v-42.9c5,.58,8.55-.06,12.28-.06h.59c1.86-1,3.69.33,5.47.17a62.49,62.49,0,0,0,3.85,8.74,92.08,92.08,0,0,0,12,17C283.95,441.27,284.68,442.21,285.44,443Z"/><path class="cls-15" d="M251.85,239.11a74.36,74.36,0,0,1-148.63,3.57q0-.36,0-.71a5.25,5.25,0,0,1,9.8-2.77,71.74,71.74,0,0,0,127.05-5.74c2.72-5.84,11.43-4.23,11.72,2.21Q251.85,237.37,251.85,239.11Z"/><path class="cls-16" d="M223,102.76c5.69-9,19.21-10.6,29.45-3.1,8.63,6.32,11.77,17.21,7.31,25.23l-.09.15c-.67,1.17-2.71.48-2.76-.93-.22-6.38-4-12.94-10.43-17-7-4.43-15.33-4.71-21.34-1.34-1.44.8-3.35-.88-2.57-2.27Q222.79,103.12,223,102.76Z"/><path class="cls-16" d="M133.72,90.36c3.52-8.16,14.46-11.2,23.86-6.33,7.92,4.1,11.91,12.67,9.26,19.84l-.05.14c-.4,1.05-2.17.74-2.39-.41-1-5.23-4.93-10.15-10.78-12.67-6.36-2.75-13.23-1.91-17.75,1.64-1.08.85-2.87-.29-2.41-1.54Q133.57,90.69,133.72,90.36Z"/><path class="cls-17" d="M111.18,170.93c11.8-4,33.2-10.71,48.72-11.83a4.53,4.53,0,0,1,4.21,2.15,47.74,47.74,0,0,0,6,7.27,2.51,2.51,0,0,1-2.11,4.24c-18.32-2.15-43.15-.66-56.35.42A1.16,1.16,0,0,1,111.18,170.93Z"/><path class="cls-18" d="M29.52,343.94l5.06,5.63-13.77,10.2a1.24,1.24,0,0,0,1,2.21c10.39-2.41,31.89-7.08,43-7.19a3.92,3.92,0,0,0,3.88-4.47c-.06-.39-.11-.78-.15-1.15A4.24,4.24,0,0,0,64,345.45c-7.13.48-22,.82-33.3-3.32A1.12,1.12,0,0,0,29.52,343.94Z"/><path class="cls-13" d="M75.79,255.23c.23,1.52-.72,8.53-2.69,8.7-12.27,1.11-26.62.09-37-7.23a25.2,25.2,0,0,1-9-11.56c.75,1.88,3.92,2.73,5.57,3.57A65.66,65.66,0,0,0,53.66,255a84.6,84.6,0,0,0,11,.75C68.39,255.78,72.14,255.1,75.79,255.23Z"/><ellipse class="cls-5" cx="229.79" cy="131.8" rx="13.72" ry="9.15" transform="translate(13.39 284.6) rotate(-65.06)"/><ellipse class="cls-5" cx="145.09" cy="115.55" rx="11.35" ry="7.57" transform="translate(28.76 260.02) rotate(-89.69)"/></symbol></defs><title>Line</title><use id="Opal_Eyes_Open-3" data-name="Opal / Eyes Open" width="422" height="487.15" transform="translate(80 61.43)" xlink:href="#Opal_Eyes_Open"/></svg>